# File created by Blade
# Date/Time:  Fri Jan 16 17:18:57 2015
#---------------------------------------------------------
:version 1.10
:name HOM
:units
  mass 1.0
  length 1.000000
  angle deg
:documentation
     Acclaim Skeleton File
:root
   axis xyz
   order TX TY TZ RX RY RZ
   position 0.000000 0.000000 0.000000
   orientation 0 0 0
:bonedata
   begin
      id 1
      name Spine_dum
      direction 0.000000 1.000000 0.000000
      length 7.170412
      axis 0.0 0.0 0.0 xyz
   end
   begin
      id 2
      name LeftUpLeg_dum
      direction 1.000000 0.000000 0.000000
      length 4.318350
      axis 0.0 0.0 0.0 xyz
   end
   begin
      id 3
      name RightUpLeg_dum
      direction -1.000000 0.000000 0.000000
      length 4.318350
      axis 0.0 0.0 0.0 xyz
   end
   begin
      id 4
      name Spine
      direction 0.000000 1.000000 0.000000
      length 0.000000
      axis 0.0 0.0 0.0 xyz
      dof rx ry rz
   end
   begin
      id 5
      name Spine_dum1
      direction 0.000000 1.000000 0.000000
      length 14.276153
      axis 0.0 0.0 0.0 xyz
   end
   begin
      id 6
      name Spine_dum2
      direction 0.000000 1.000000 0.000000
      length 10.718243
      axis 0.0 0.0 0.0 xyz
   end
   begin
      id 7
      name Spine_dum3
      direction 0.000000 1.000000 0.000000
      length 10.718243
      axis 0.0 0.0 0.0 xyz
   end
   begin
      id 8
      name Head
      direction 0.000000 1.000000 0.000000
      length 4.527550
      axis 0.0 0.0 0.0 xyz
      dof rx ry rz
   end
   begin
      id 9
      name LeftShoulder
      direction 1.000000 0.000000 0.000000
      length 7.058872
      axis 0.0 0.0 -90.0 xyz
      dof rx ry rz
   end
   begin
      id 10
      name LeftArm
      direction 1.000000 0.000000 0.000000
      length 10.955525
      axis 0.0 0.0 -90.0 xyz
      dof rx ry rz
   end
   begin
      id 11
      name LeftForeArm
      direction 1.000000 0.000000 0.000000
      length 8.193716
      axis 0.0 0.0 -90.0 xyz
      dof ry rz rx
   end
   begin
      id 12
      name LeftHand
      direction 0.000000 0.000000 0.000000
      length 0.000000
      axis 0.0 0.0 -90.0 xyz
      dof rx ry rz
   end
   begin
      id 13
      name LeftHand_dum1
      direction 0.000000 0.000000 0.000000
      length 0.000000
      axis 0.0 0.0 -90.0 xyz
   end
   begin
      id 14
      name LeftHand_dum2
      direction 1.000000 0.000000 0.000000
      length 3.937000
      axis 0.0 0.0 -90.0 xyz
   end
   begin
      id 15
      name LeftHandThumb1
      direction 0.000000 0.000000 1.000000
      length 3.937000
      axis 0.0 0.0 -90.0 xyz
      dof rx rz ry
   end
   begin
      id 16
      name RightShoulder
      direction -1.000000 0.000000 0.000000
      length 7.058872
      axis 0.0 0.0 90.0 xyz
      dof rx ry rz
   end
   begin
      id 17
      name RightArm
      direction -1.000000 0.000000 0.000000
      length 10.955525
      axis 0.0 0.0 90.0 xyz
      dof rx ry rz
   end
   begin
      id 18
      name RightForeArm
      direction -1.000000 0.000000 0.000000
      length 8.193716
      axis 0.0 0.0 90.0 xyz
      dof ry rz rx
   end
   begin
      id 19
      name RightHand
      direction 0.000000 0.000000 0.000000
      length 0.000000
      axis 0.0 0.0 90.0 xyz
      dof rx ry rz
   end
   begin
      id 20
      name RightHand_dum1
      direction 0.000000 0.000000 0.000000
      length 0.000000
      axis 0.0 0.0 90.0 xyz
   end
   begin
      id 21
      name RightHand_dum2
      direction -1.000000 0.000000 0.000000
      length 3.937000
      axis 0.0 0.0 90.0 xyz
   end
   begin
      id 22
      name RightHandThumb1
      direction 0.000000 0.000000 1.000000
      length 3.937000
      axis 0.0 0.0 90.0 xyz
      dof rx rz ry
   end
   begin
      id 23
      name LeftUpLeg
      direction 0.000000 -1.000000 0.000000
      length 17.323638
      axis 0.0 0.0 0.0 xyz
      dof rx ry rz
   end
   begin
      id 24
      name LeftLeg
      direction 0.000000 -1.000000 0.000000
      length 16.270368
      axis 0.0 0.0 0.0 xyz
      dof rx ry rz
   end
   begin
      id 25
      name LeftFoot
      direction 0.000000 -0.258819 0.965926
      length 4.922846
      axis 15.0 0.0 0.0 xyz
      dof rx ry rz
   end
   begin
      id 26
      name LeftToeBase
      direction 0.000000 0.000000 1.000000
      length 2.952750
      axis 0.0 0.0 0.0 xyz
      dof rx ry rz
   end
   begin
      id 27
      name RightUpLeg
      direction 0.000000 -1.000000 0.000000
      length 17.323638
      axis 0.0 0.0 0.0 xyz
      dof rx ry rz
   end
   begin
      id 28
      name RightLeg
      direction 0.000000 -1.000000 0.000000
      length 16.270368
      axis 0.0 0.0 0.0 xyz
      dof rx ry rz
   end
   begin
      id 29
      name RightFoot
      direction 0.000000 -0.258819 0.965926
      length 4.922846
      axis 15.0 0.0 0.0 xyz
      dof rx ry rz
   end
   begin
      id 30
      name RightToeBase
      direction 0.000000 0.000000 1.000000
      length 2.952750
      axis 0.0 0.0 0.0 xyz
      dof rx ry rz
   end
:hierarchy
   begin
      root Spine_dum LeftUpLeg_dum RightUpLeg_dum
      Spine_dum Spine
      LeftUpLeg_dum LeftUpLeg
      RightUpLeg_dum RightUpLeg
      Spine Spine_dum1 Spine_dum2 Spine_dum3
      Spine_dum1 Head
      Spine_dum2 LeftShoulder
      Spine_dum3 RightShoulder
      LeftShoulder LeftArm
      LeftArm LeftForeArm
      LeftForeArm LeftHand
      LeftHand LeftHand_dum1 LeftHand_dum2
      LeftHand_dum1 LeftHandThumb1
      RightShoulder RightArm
      RightArm RightForeArm
      RightForeArm RightHand
      RightHand RightHand_dum1 RightHand_dum2
      RightHand_dum1 RightHandThumb1
      LeftUpLeg LeftLeg
      LeftLeg LeftFoot
      LeftFoot LeftToeBase
      RightUpLeg RightLeg
      RightLeg RightFoot
      RightFoot RightToeBase
   end

# File created by Blade
# Date/Time:  Fri Jan 16 17:19:08 2015
# Frame Rate: 120.000 fps
#------------------------------------------------------
:FULLY-SPECIFIED
:DEGREES
2993
root -5.228824 35.165133 -9.102313 0.756290 -4.091911 -6.353671
Spine -5.697379 -4.954413 6.641966
Head 8.962910 -8.887628 -4.233107
LeftShoulder -20.869311 13.167454 -14.167334
LeftArm 16.396869 -11.753379 -74.986822
LeftForeArm 15.990661 -0.000000 9.740591
LeftHand 0.341071 -0.000000 -5.433701
LeftHandThumb1 -26.253704 0.000000 33.147579
RightShoulder -12.418271 11.699193 -11.688453
RightArm -52.886029 64.471197 3.994571
RightForeArm 57.850303 -0.000000 18.638990
RightHand 11.142209 -0.000000 -29.475266
RightHandThumb1 -24.326973 -0.000000 -32.862282
LeftUpLeg 10.574960 13.036728 6.749269
LeftLeg -9.524564 -0.000000 0.000000
LeftFoot -16.617514 28.541713 -7.729957
LeftToeBase 22.936594 -0.000000 -0.000000
RightUpLeg 7.317650 -4.878634 4.391146
RightLeg -4.566759 -0.000000 0.000000
RightFoot -5.640656 -28.599434 5.078778
RightToeBase 13.550040 -0.000000 -0.000000
2994
root -5.227787 35.165627 -9.100526 0.749532 -4.025701 -6.350359
Spine -5.705474 -5.010679 6.651041
Head 8.973620 -8.849692 -4.201947
LeftShoulder -20.842883 13.190589 -14.127954
LeftArm 16.364947 -11.704569 -74.967865
LeftForeArm 15.953478 0.000000 9.734360
LeftHand 0.364497 -0.000000 -5.340057
LeftHandThumb1 -26.253704 0.000000 33.147579
RightShoulder -12.479903 11.642259 -11.553945
RightArm -53.453922 64.712399 3.394369
RightForeArm 56.999599 -0.000000 20.205020
RightHand 10.804477 -0.000000 -30.395567
RightHandThumb1 -24.326973 -0.000000 -32.862282
LeftUpLeg 10.562485 13.013273 6.756807
LeftLeg -9.503535 -0.000000 0.000000
LeftFoot -16.557163 28.465008 -7.617074
LeftToeBase 22.856682 -0.000000 -0.000000
RightUpLeg 7.328845 -4.895763 4.389110
RightLeg -4.562832 -0.000000 0.000000
RightFoot -5.646726 -28.624651 5.092386
RightToeBase 13.547421 -0.000000 -0.000000
2995
root -5.224532 35.165183 -9.096838 0.734002 -3.964712 -6.328493
Spine -5.714455 -5.064539 6.649600
Head 9.011540 -8.801342 -4.192926
LeftShoulder -20.822019 13.238404 -14.099925
LeftArm 16.362149 -11.661800 -74.957176
LeftForeArm 15.961333 -0.000000 9.712344
LeftHand 0.342151 -0.000000 -5.299708
LeftHandThumb1 -26.253704 0.000000 33.147579
RightShoulder -12.542697 11.551940 -11.424693
RightArm -53.869707 64.943304 2.980761
RightForeArm 56.394752 0.000000 21.880515
RightHand 10.687767 0.000000 -31.459341
RightHandThumb1 -24.326973 -0.000000 -32.862282
LeftUpLeg 10.559676 12.988032 6.733431
LeftLeg -9.488641 -0.000000 0.000000
LeftFoot -16.553211 28.430613 -7.606435
LeftToeBase 22.897620 -0.000000 -0.000000
RightUpLeg 7.348397 -4.947369 4.362603
RightLeg -4.555962 -0.000000 0.000000
RightFoot -5.669877 -28.633864 5.095819
RightToeBase 13.540360 -0.000000 -0.000000
2996
root -5.223138 35.166080 -9.099376 0.761602 -3.913879 -6.338277
Spine -5.762299 -5.104851 6.680706
Head 9.065140 -8.775387 -4.162904
LeftShoulder -20.801138 13.285570 -14.077195
LeftArm 16.366041 -11.653313 -74.959263
LeftForeArm 15.981475 -0.000000 9.688504
LeftHand 0.323725 -0.000000 -5.339723
LeftHandThumb1 -26.253704 0.000000 33.147579
RightShoulder -12.625209 11.422137 -11.279026
RightArm -54.500048 65.318347 2.356734
RightForeArm 55.253123 0.000000 23.748599
RightHand 9.863559 0.000000 -32.514214
RightHandThumb1 -24.326973 -0.000000 -32.862282
LeftUpLeg 10.498226 12.990025 6.728157
LeftLeg -9.465993 -0.000000 0.000000
LeftFoot -16.604592 28.433119 -7.682079
LeftToeBase 22.897273 -0.000000 -0.000000
RightUpLeg 7.307922 -4.968951 4.376220
RightLeg -4.531916 -0.000000 0.000000
RightFoot -5.678968 -28.653729 5.118457
RightToeBase 13.553216 -0.000000 -0.000000
2997
root -5.222418 35.166393 -9.098814 0.774380 -3.872838 -6.339337
Spine -5.801983 -5.142710 6.698256
Head 9.105223 -8.767646 -4.169549
LeftShoulder -20.777747 13.294702 -14.031147
LeftArm 16.319834 -11.652088 -74.956899
LeftForeArm 15.987692 0.000000 9.669819
LeftHand 0.372551 -0.000000 -5.301321
LeftHandThumb1 -26.253704 0.000000 33.147579
RightShoulder -12.706785 11.326230 -11.133364
RightArm -55.125948 65.650170 1.739927
RightForeArm 54.130673 -0.000000 25.624577
RightHand 9.526287 -0.000000 -33.233267
RightHandThumb1 -24.326973 -0.000000 -32.862282
LeftUpLeg 10.471665 12.963774 6.724505
LeftLeg -9.460009 -0.000000 0.000000
LeftFoot -16.598776 28.434384 -7.662837
LeftToeBase 22.915226 -0.000000 -0.000000
RightUpLeg 7.292393 -5.004704 4.379398
RightLeg -4.522549 -0.000000 0.000000
RightFoot -5.689025 -28.674360 5.137732
RightToeBase 13.542590 -0.000000 -0.000000
2998
root -5.220662 35.166556 -9.096783 0.780259 -3.837685 -6.331499
Spine -5.842036 -5.177712 6.710150
Head 9.185638 -8.733879 -4.167144
LeftShoulder -20.753230 13.345508 -14.003396
LeftArm 16.305029 -11.649986 -74.953291
LeftForeArm 15.983097 -0.000000 9.661267
LeftHand 0.398962 0.000000 -5.333364
LeftHandThumb1 -26.253704 0.000000 33.147579
RightShoulder -12.767782 11.228755 -10.954257
RightArm -55.513710 65.878637 1.326189
RightForeArm 53.395845 -0.000000 27.549939
RightHand 9.023469 -0.000000 -34.006413
RightHandThumb1 -24.326973 -0.000000 -32.862282
LeftUpLeg 10.456611 12.948049 6.720087
LeftLeg -9.441620 -0.000000 0.000000
LeftFoot -16.576368 28.367144 -7.602782
LeftToeBase 22.909997 -0.000000 -0.000000
RightUpLeg 7.285777 -5.019573 4.370178
RightLeg -4.511170 -0.000000 0.000000
RightFoot -5.705941 -28.682474 5.141600
RightToeBase 13.534693 -0.000000 -0.000000
2999
root -5.218884 35.166087 -9.094520 0.786920 -3.805548 -6.333909
Spine -5.881737 -5.214867 6.748757
Head 9.255275 -8.718469 -4.183050
LeftShoulder -20.738821 13.358735 -13.983907
LeftArm 16.253078 -11.644797 -74.940219
LeftForeArm 16.019881 -0.000000 9.674497
LeftHand 0.416388 -0.000000 -5.371381
LeftHandThumb1 -26.253704 0.000000 33.147579
RightShoulder -12.842010 11.151902 -10.810541
RightArm -55.873733 66.113170 0.958104
RightForeArm 52.697317 -0.000000 29.546804
RightHand 9.322263 -0.000000 -35.006896
RightHandThumb1 -24.326973 -0.000000 -32.862282
LeftUpLeg 10.448004 12.952791 6.712849
LeftLeg -9.458038 -0.000000 0.000000
LeftFoot -16.607429 28.387458 -7.667833
LeftToeBase 22.949408 -0.000000 -0.000000
RightUpLeg 7.286170 -5.027164 4.371469
RightLeg -4.513261 -0.000000 0.000000
RightFoot -5.720293 -28.692058 5.176375
RightToeBase 13.502597 -0.000000 -0.000000
3000
root -5.217677 35.165652 -9.091746 0.792120 -3.789106 -6.333654
Spine -5.919061 -5.242518 6.778587
Head 9.326565 -8.693549 -4.199298
LeftShoulder -20.722030 13.365965 -13.961698
LeftArm 16.134035 -11.436685 -74.855677
LeftForeArm 15.819633 -0.000000 9.789979
LeftHand 0.353251 0.000000 -5.323301
LeftHandThumb1 -26.253704 0.000000 33.147579
RightShoulder -12.893991 11.132431 -10.735151
RightArm -56.231214 66.174914 0.731981
RightForeArm 51.930689 0.000000 31.585631
RightHand 9.578037 -0.000000 -35.381556
RightHandThumb1 -24.326973 -0.000000 -32.862282
LeftUpLeg 10.447155 12.927047 6.715480
LeftLeg -9.458765 -0.000000 0.000000
LeftFoot -16.562478 28.369243 -7.584712
LeftToeBase 22.881338 -0.000000 -0.000000
RightUpLeg 7.279999 -5.036907 4.369284
RightLeg -4.499621 -0.000000 0.000000
RightFoot -5.736040 -28.702572 5.179530
RightToeBase 13.520259 -0.000000 -0.000000
3001
root -5.216465 35.165345 -9.089273 0.805278 -3.776698 -6.335545
Spine -5.970523 -5.263192 6.814539
Head 9.426296 -8.671310 -4.205994
LeftShoulder -20.717659 13.381982 -13.942389
LeftArm 16.139410 -11.632241 -74.910012
LeftForeArm 16.043156 -0.000000 9.707374
LeftHand 0.431389 -0.000000 -5.443822
LeftHandThumb1 -26.253704 0.000000 33.147579
RightShoulder -12.954649 11.053811 -10.596807
RightArm -56.897115 66.478778 0.085994
RightForeArm 51.358729 0.000000 33.671453
RightHand 9.276161 -0.000000 -35.527194
RightHandThumb1 -24.326973 -0.000000 -32.862282
LeftUpLeg 10.436242 12.932250 6.715284
LeftLeg -9.458384 -0.000000 0.000000
LeftFoot -16.562255 28.346433 -7.579394
LeftToeBase 22.887796 -0.000000 -0.000000
RightUpLeg 7.272229 -5.034369 4.371066
RightLeg -4.501335 -0.000000 0.000000
RightFoot -5.734024 -28.707091 5.165526
RightToeBase 13.572526 -0.000000 -0.000000
3002
root -5.215852 35.164689 -9.086482 0.811454 -3.777045 -6.340034
Spine -6.012844 -5.265123 6.847318
Head 9.526937 -8.655507 -4.223939
LeftShoulder -20.694676 13.387398 -13.908805
LeftArm 16.090191 -11.686118 -74.924169
LeftForeArm 16.078340 -0.000000 9.693008
LeftHand 0.427567 0.000000 -5.458201
LeftHandThumb1 -26.253704 0.000000 33.147579
RightShoulder -12.985813 10.997762 -10.461170
RightArm -57.409313 66.638666 -0.423159
RightForeArm 50.784100 -0.000000 35.685225
RightHand 9.031156 -0.000000 -35.252126
RightHandThumb1 -24.326973 -0.000000 -32.862282
LeftUpLeg 10.443220 12.931024 6.717676
LeftLeg -9.476209 -0.000000 0.000000
LeftFoot -16.563358 28.359364 -7.565795
LeftToeBase 22.936559 -0.000000 -0.000000
RightUpLeg 7.267586 -5.020792 4.374948
RightLeg -4.494246 -0.000000 0.000000
RightFoot -5.746431 -28.719591 5.182928
RightToeBase 13.561461 -0.000000 -0.000000
3003
root -5.218554 35.163990 -9.078844 0.798702 -3.770960 -6.354899
Spine -6.049771 -5.283402 6.883040
Head 9.635468 -8.616880 -4.240558
LeftShoulder -20.696653 13.415502 -13.877069
LeftArm 16.052818 -11.712499 -74.940002
LeftForeArm 16.051321 -0.000000 9.701845
LeftHand 0.441887 -0.000000 -5.400872
LeftHandThumb1 -26.253704 0.000000 33.147579
RightShoulder -13.025156 10.950328 -10.328870
RightArm -57.997364 66.840525 -1.016183
RightForeArm 50.119501 -0.000000 37.780926
RightHand 9.003134 -0.000000 -35.672389
RightHandThumb1 -24.326973 -0.000000 -32.862282
LeftUpLeg 10.479057 12.943356 6.745427
LeftLeg -9.494101 -0.000000 0.000000
LeftFoot -16.554645 28.335457 -7.560912
LeftToeBase 22.893942 -0.000000 -0.000000
RightUpLeg 7.306802 -5.035677 4.390530
RightLeg -4.521221 -0.000000 0.000000
RightFoot -5.734685 -28.704900 5.198456
RightToeBase 13.504175 -0.000000 -0.000000
